<svg xmlns="http://www.w3.org/2000/svg" width="900" height="1500" viewBox="0 0 900 1500">
<rect width="100%" height="100%" fill="#f6f8fb"/>
<rect x="10" y="10" width="430" height="280" rx="10" fill="white" stroke="#d7dce5"/>
<text x="24" y="39" font-family="Arial,sans-serif" font-size="18.000" font-weight="bold" fill="#0f172a">BJT_NPN</text>
<line x1="209.753" y1="151.000" x2="225.000" y2="151.000" fill="none" stroke="#182a40" stroke-width="3.049" stroke-linejoin="round"/>
<line x1="225.000" y1="173.871" x2="225.000" y2="128.129" fill="none" stroke="#182a40" stroke-width="3.049" stroke-linejoin="round"/>
<line x1="225.000" y1="135.753" x2="270.742" y2="120.506" fill="none" stroke="#182a40" stroke-width="3.049" stroke-linejoin="round"/>
<line x1="225.000" y1="166.247" x2="270.742" y2="181.494" fill="none" stroke="#182a40" stroke-width="3.049" stroke-linejoin="round"/>
<polygon points="261.557,178.433 254.954,172.226 252.553,179.429" fill="white" stroke="#182a40" stroke-width="3.049" stroke-linejoin="round"/>
<line x1="179.258" y1="151.000" x2="209.753" y2="151.000" stroke="#182a40" stroke-width="3.049"/>
<text x="174.258" y="143.000" text-anchor="end" font-family="Arial,sans-serif" font-size="12" fill="#52667c">1</text>
<line x1="270.742" y1="90.011" x2="270.742" y2="120.506" stroke="#182a40" stroke-width="3.049"/>
<text x="277.742" y="109.258" text-anchor="start" font-family="Arial,sans-serif" font-size="12" fill="#52667c">2</text>
<line x1="270.742" y1="211.989" x2="270.742" y2="181.494" stroke="#182a40" stroke-width="3.049"/>
<text x="277.742" y="200.742" text-anchor="start" font-family="Arial,sans-serif" font-size="12" fill="#52667c">3</text>
<text x="24" y="272" font-family="Arial,sans-serif" font-size="12.000" fill="#64748b">1=B · 2=C · 3=E</text>
<rect x="460" y="10" width="430" height="280" rx="10" fill="white" stroke="#d7dce5"/>
<text x="474" y="39" font-family="Arial,sans-serif" font-size="18.000" font-weight="bold" fill="#0f172a">BJT_PNP</text>
<line x1="659.753" y1="151.000" x2="675.000" y2="151.000" fill="none" stroke="#182a40" stroke-width="3.049" stroke-linejoin="round"/>
<line x1="675.000" y1="173.871" x2="675.000" y2="128.129" fill="none" stroke="#182a40" stroke-width="3.049" stroke-linejoin="round"/>
<line x1="675.000" y1="135.753" x2="720.742" y2="120.506" fill="none" stroke="#182a40" stroke-width="3.049" stroke-linejoin="round"/>
<line x1="675.000" y1="166.247" x2="720.742" y2="181.494" fill="none" stroke="#182a40" stroke-width="3.049" stroke-linejoin="round"/>
<polygon points="700.752,174.831 707.355,181.026 709.756,173.823" fill="white" stroke="#182a40" stroke-width="3.049" stroke-linejoin="round"/>
<line x1="629.258" y1="151.000" x2="659.753" y2="151.000" stroke="#182a40" stroke-width="3.049"/>
<text x="624.258" y="143.000" text-anchor="end" font-family="Arial,sans-serif" font-size="12" fill="#52667c">1</text>
<line x1="720.742" y1="90.011" x2="720.742" y2="120.506" stroke="#182a40" stroke-width="3.049"/>
<text x="727.742" y="109.258" text-anchor="start" font-family="Arial,sans-serif" font-size="12" fill="#52667c">2</text>
<line x1="720.742" y1="211.989" x2="720.742" y2="181.494" stroke="#182a40" stroke-width="3.049"/>
<text x="727.742" y="200.742" text-anchor="start" font-family="Arial,sans-serif" font-size="12" fill="#52667c">3</text>
<text x="474" y="272" font-family="Arial,sans-serif" font-size="12.000" fill="#64748b">1=B · 2=C · 3=E</text>
<rect x="10" y="310" width="430" height="280" rx="10" fill="white" stroke="#d7dce5"/>
<text x="24" y="339" font-family="Arial,sans-serif" font-size="18.000" font-weight="bold" fill="#0f172a">MOSFET_N_Channel</text>
<line x1="198.528" y1="451.000" x2="213.775" y2="451.000" fill="none" stroke="#182a40" stroke-width="3.049" stroke-linejoin="round"/>
<line x1="213.775" y1="473.871" x2="213.775" y2="428.129" fill="none" stroke="#182a40" stroke-width="3.049" stroke-linejoin="round"/>
<line x1="229.022" y1="473.871" x2="229.022" y2="463.198" fill="none" stroke="#182a40" stroke-width="3.049" stroke-linejoin="round"/>
<line x1="229.022" y1="457.099" x2="229.022" y2="444.901" fill="none" stroke="#182a40" stroke-width="3.049" stroke-linejoin="round"/>
<line x1="229.022" y1="438.802" x2="229.022" y2="428.129" fill="none" stroke="#182a40" stroke-width="3.049" stroke-linejoin="round"/>
<line x1="229.022" y1="432.703" x2="259.516" y2="432.703" fill="none" stroke="#182a40" stroke-width="3.049" stroke-linejoin="round"/>
<line x1="259.516" y1="432.703" x2="259.516" y2="420.506" fill="none" stroke="#182a40" stroke-width="3.049" stroke-linejoin="round"/>
<line x1="229.022" y1="469.297" x2="259.516" y2="469.297" fill="none" stroke="#182a40" stroke-width="3.049" stroke-linejoin="round"/>
<line x1="259.516" y1="469.297" x2="259.516" y2="481.494" fill="none" stroke="#182a40" stroke-width="3.049" stroke-linejoin="round"/>
<line x1="229.022" y1="451.000" x2="259.516" y2="451.000" fill="none" stroke="#182a40" stroke-width="3.049" stroke-linejoin="round"/>
<line x1="259.516" y1="451.000" x2="259.516" y2="469.297" fill="none" stroke="#182a40" stroke-width="3.049" stroke-linejoin="round"/>
<polygon points="236.826,451.000 244.629,454.602 244.629,447.398" fill="white" stroke="#182a40" stroke-width="3.049" stroke-linejoin="round"/>
<line x1="259.516" y1="432.703" x2="274.763" y2="432.703" fill="none" stroke="#182a40" stroke-width="3.049" stroke-linejoin="round"/>
<line x1="274.763" y1="432.703" x2="274.763" y2="443.797" fill="none" stroke="#182a40" stroke-width="3.049" stroke-linejoin="round"/>
<line x1="259.516" y1="469.297" x2="274.763" y2="469.297" fill="none" stroke="#182a40" stroke-width="3.049" stroke-linejoin="round"/>
<line x1="274.763" y1="469.297" x2="274.763" y2="458.203" fill="none" stroke="#182a40" stroke-width="3.049" stroke-linejoin="round"/>
<polygon points="267.560,458.203 281.967,458.203 274.763,443.797" fill="white" stroke="#182a40" stroke-width="3.049" stroke-linejoin="round"/>
<line x1="267.560" y1="443.797" x2="281.967" y2="443.797" fill="none" stroke="#182a40" stroke-width="3.049" stroke-linejoin="round"/>
<line x1="168.033" y1="451.000" x2="198.528" y2="451.000" stroke="#182a40" stroke-width="3.049"/>
<text x="163.033" y="443.000" text-anchor="end" font-family="Arial,sans-serif" font-size="12" fill="#52667c">1</text>
<line x1="259.516" y1="390.011" x2="259.516" y2="420.506" stroke="#182a40" stroke-width="3.049"/>
<text x="266.516" y="409.258" text-anchor="start" font-family="Arial,sans-serif" font-size="12" fill="#52667c">2</text>
<line x1="259.516" y1="511.989" x2="259.516" y2="481.494" stroke="#182a40" stroke-width="3.049"/>
<text x="266.516" y="500.742" text-anchor="start" font-family="Arial,sans-serif" font-size="12" fill="#52667c">3</text>
<text x="24" y="572" font-family="Arial,sans-serif" font-size="12.000" fill="#64748b">1=G · 2=D · 3=S</text>
<rect x="460" y="310" width="430" height="280" rx="10" fill="white" stroke="#d7dce5"/>
<text x="474" y="339" font-family="Arial,sans-serif" font-size="18.000" font-weight="bold" fill="#0f172a">MOSFET_P_Channel</text>
<line x1="648.528" y1="451.000" x2="663.775" y2="451.000" fill="none" stroke="#182a40" stroke-width="3.049" stroke-linejoin="round"/>
<line x1="663.775" y1="473.871" x2="663.775" y2="428.129" fill="none" stroke="#182a40" stroke-width="3.049" stroke-linejoin="round"/>
<line x1="679.022" y1="473.871" x2="679.022" y2="463.198" fill="none" stroke="#182a40" stroke-width="3.049" stroke-linejoin="round"/>
<line x1="679.022" y1="457.099" x2="679.022" y2="444.901" fill="none" stroke="#182a40" stroke-width="3.049" stroke-linejoin="round"/>
<line x1="679.022" y1="438.802" x2="679.022" y2="428.129" fill="none" stroke="#182a40" stroke-width="3.049" stroke-linejoin="round"/>
<line x1="679.022" y1="432.703" x2="709.516" y2="432.703" fill="none" stroke="#182a40" stroke-width="3.049" stroke-linejoin="round"/>
<line x1="709.516" y1="432.703" x2="709.516" y2="420.506" fill="none" stroke="#182a40" stroke-width="3.049" stroke-linejoin="round"/>
<line x1="679.022" y1="469.297" x2="709.516" y2="469.297" fill="none" stroke="#182a40" stroke-width="3.049" stroke-linejoin="round"/>
<line x1="709.516" y1="469.297" x2="709.516" y2="481.494" fill="none" stroke="#182a40" stroke-width="3.049" stroke-linejoin="round"/>
<line x1="679.022" y1="451.000" x2="709.516" y2="451.000" fill="none" stroke="#182a40" stroke-width="3.049" stroke-linejoin="round"/>
<line x1="709.516" y1="451.000" x2="709.516" y2="469.297" fill="none" stroke="#182a40" stroke-width="3.049" stroke-linejoin="round"/>
<polygon points="697.030,451.000 689.227,447.398 689.227,454.602" fill="white" stroke="#182a40" stroke-width="3.049" stroke-linejoin="round"/>
<line x1="709.516" y1="432.703" x2="724.763" y2="432.703" fill="none" stroke="#182a40" stroke-width="3.049" stroke-linejoin="round"/>
<line x1="724.763" y1="432.703" x2="724.763" y2="443.797" fill="none" stroke="#182a40" stroke-width="3.049" stroke-linejoin="round"/>
<line x1="709.516" y1="469.297" x2="724.763" y2="469.297" fill="none" stroke="#182a40" stroke-width="3.049" stroke-linejoin="round"/>
<line x1="724.763" y1="469.297" x2="724.763" y2="458.203" fill="none" stroke="#182a40" stroke-width="3.049" stroke-linejoin="round"/>
<polygon points="717.560,443.797 731.967,443.797 724.763,458.203" fill="white" stroke="#182a40" stroke-width="3.049" stroke-linejoin="round"/>
<line x1="717.560" y1="458.203" x2="731.967" y2="458.203" fill="none" stroke="#182a40" stroke-width="3.049" stroke-linejoin="round"/>
<line x1="618.033" y1="451.000" x2="648.528" y2="451.000" stroke="#182a40" stroke-width="3.049"/>
<text x="613.033" y="443.000" text-anchor="end" font-family="Arial,sans-serif" font-size="12" fill="#52667c">1</text>
<line x1="709.516" y1="390.011" x2="709.516" y2="420.506" stroke="#182a40" stroke-width="3.049"/>
<text x="716.516" y="409.258" text-anchor="start" font-family="Arial,sans-serif" font-size="12" fill="#52667c">2</text>
<line x1="709.516" y1="511.989" x2="709.516" y2="481.494" stroke="#182a40" stroke-width="3.049"/>
<text x="716.516" y="500.742" text-anchor="start" font-family="Arial,sans-serif" font-size="12" fill="#52667c">3</text>
<text x="474" y="572" font-family="Arial,sans-serif" font-size="12.000" fill="#64748b">1=G · 2=D · 3=S</text>
<rect x="10" y="610" width="430" height="280" rx="10" fill="white" stroke="#d7dce5"/>
<text x="24" y="639" font-family="Arial,sans-serif" font-size="18.000" font-weight="bold" fill="#0f172a">IGBT</text>
<line x1="209.753" y1="751.000" x2="215.852" y2="751.000" fill="none" stroke="#182a40" stroke-width="3.049" stroke-linejoin="round"/>
<line x1="215.852" y1="773.871" x2="215.852" y2="728.129" fill="none" stroke="#182a40" stroke-width="3.049" stroke-linejoin="round"/>
<line x1="225.000" y1="773.871" x2="225.000" y2="728.129" fill="none" stroke="#182a40" stroke-width="3.049" stroke-linejoin="round"/>
<line x1="225.000" y1="735.753" x2="270.742" y2="720.506" fill="none" stroke="#182a40" stroke-width="3.049" stroke-linejoin="round"/>
<line x1="225.000" y1="766.247" x2="270.742" y2="781.494" fill="none" stroke="#182a40" stroke-width="3.049" stroke-linejoin="round"/>
<polygon points="261.557,778.433 254.954,772.226 252.553,779.429" fill="white" stroke="#182a40" stroke-width="3.049" stroke-linejoin="round"/>
<line x1="179.258" y1="751.000" x2="209.753" y2="751.000" stroke="#182a40" stroke-width="3.049"/>
<text x="174.258" y="743.000" text-anchor="end" font-family="Arial,sans-serif" font-size="12" fill="#52667c">1</text>
<line x1="270.742" y1="690.011" x2="270.742" y2="720.506" stroke="#182a40" stroke-width="3.049"/>
<text x="277.742" y="709.258" text-anchor="start" font-family="Arial,sans-serif" font-size="12" fill="#52667c">2</text>
<line x1="270.742" y1="811.989" x2="270.742" y2="781.494" stroke="#182a40" stroke-width="3.049"/>
<text x="277.742" y="800.742" text-anchor="start" font-family="Arial,sans-serif" font-size="12" fill="#52667c">3</text>
<text x="24" y="872" font-family="Arial,sans-serif" font-size="12.000" fill="#64748b">1=G · 2=C · 3=E</text>
<rect x="460" y="610" width="430" height="280" rx="10" fill="white" stroke="#d7dce5"/>
<text x="474" y="639" font-family="Arial,sans-serif" font-size="18.000" font-weight="bold" fill="#0f172a">SCR</text>
<polygon points="682.624,735.753 713.118,735.753 697.871,766.247" fill="white" stroke="#182a40" stroke-width="3.049" stroke-linejoin="round"/>
<line x1="682.624" y1="766.247" x2="713.118" y2="766.247" fill="none" stroke="#182a40" stroke-width="3.049" stroke-linejoin="round"/>
<line x1="697.871" y1="720.506" x2="697.871" y2="735.753" fill="none" stroke="#182a40" stroke-width="3.049" stroke-linejoin="round"/>
<line x1="697.871" y1="766.247" x2="697.871" y2="781.494" fill="none" stroke="#182a40" stroke-width="3.049" stroke-linejoin="round"/>
<line x1="667.376" y1="781.494" x2="697.871" y2="766.247" fill="none" stroke="#182a40" stroke-width="3.049" stroke-linejoin="round"/>
<line x1="697.871" y1="690.011" x2="697.871" y2="720.506" stroke="#182a40" stroke-width="3.049"/>
<text x="704.871" y="709.258" text-anchor="start" font-family="Arial,sans-serif" font-size="12" fill="#52667c">1</text>
<line x1="697.871" y1="811.989" x2="697.871" y2="781.494" stroke="#182a40" stroke-width="3.049"/>
<text x="704.871" y="800.742" text-anchor="start" font-family="Arial,sans-serif" font-size="12" fill="#52667c">2</text>
<line x1="636.882" y1="781.494" x2="667.376" y2="781.494" stroke="#182a40" stroke-width="3.049"/>
<text x="631.882" y="773.494" text-anchor="end" font-family="Arial,sans-serif" font-size="12" fill="#52667c">3</text>
<text x="474" y="872" font-family="Arial,sans-serif" font-size="12.000" fill="#64748b">1=A · 2=K · 3=G</text>
<rect x="10" y="910" width="430" height="280" rx="10" fill="white" stroke="#d7dce5"/>
<text x="24" y="939" font-family="Arial,sans-serif" font-size="18.000" font-weight="bold" fill="#0f172a">TRIAC</text>
<polygon points="221.188,1035.753 236.435,1035.753 228.812,1066.247" fill="white" stroke="#182a40" stroke-width="3.049" stroke-linejoin="round"/>
<line x1="221.188" y1="1066.247" x2="236.435" y2="1066.247" fill="none" stroke="#182a40" stroke-width="3.049" stroke-linejoin="round"/>
<polygon points="251.683,1066.247 266.930,1066.247 259.306,1035.753" fill="white" stroke="#182a40" stroke-width="3.049" stroke-linejoin="round"/>
<line x1="251.683" y1="1035.753" x2="266.930" y2="1035.753" fill="none" stroke="#182a40" stroke-width="3.049" stroke-linejoin="round"/>
<line x1="228.812" y1="1035.753" x2="228.812" y2="1020.506" fill="none" stroke="#182a40" stroke-width="3.049" stroke-linejoin="round"/>
<line x1="228.812" y1="1020.506" x2="259.306" y2="1020.506" fill="none" stroke="#182a40" stroke-width="3.049" stroke-linejoin="round"/>
<line x1="259.306" y1="1020.506" x2="259.306" y2="1035.753" fill="none" stroke="#182a40" stroke-width="3.049" stroke-linejoin="round"/>
<line x1="228.812" y1="1066.247" x2="228.812" y2="1081.494" fill="none" stroke="#182a40" stroke-width="3.049" stroke-linejoin="round"/>
<line x1="228.812" y1="1081.494" x2="259.306" y2="1081.494" fill="none" stroke="#182a40" stroke-width="3.049" stroke-linejoin="round"/>
<line x1="259.306" y1="1081.494" x2="259.306" y2="1066.247" fill="none" stroke="#182a40" stroke-width="3.049" stroke-linejoin="round"/>
<line x1="213.565" y1="1081.494" x2="228.812" y2="1066.247" fill="none" stroke="#182a40" stroke-width="3.049" stroke-linejoin="round"/>
<line x1="244.059" y1="990.011" x2="244.059" y2="1020.506" stroke="#182a40" stroke-width="3.049"/>
<text x="251.059" y="1009.258" text-anchor="start" font-family="Arial,sans-serif" font-size="12" fill="#52667c">1</text>
<line x1="244.059" y1="1111.989" x2="244.059" y2="1081.494" stroke="#182a40" stroke-width="3.049"/>
<text x="251.059" y="1100.742" text-anchor="start" font-family="Arial,sans-serif" font-size="12" fill="#52667c">2</text>
<line x1="183.070" y1="1081.494" x2="213.565" y2="1081.494" stroke="#182a40" stroke-width="3.049"/>
<text x="178.070" y="1073.494" text-anchor="end" font-family="Arial,sans-serif" font-size="12" fill="#52667c">3</text>
<text x="24" y="1172" font-family="Arial,sans-serif" font-size="12.000" fill="#64748b">1=MT2 · 2=MT1 · 3=G</text>
<rect x="460" y="910" width="430" height="280" rx="10" fill="white" stroke="#d7dce5"/>
<text x="474" y="939" font-family="Arial,sans-serif" font-size="18.000" font-weight="bold" fill="#0f172a">Schottky_Diode</text>
<polygon points="645.824,1090.054 704.176,1051.000 645.824,1011.946" fill="white" stroke="#182a40" stroke-width="5.835" stroke-linejoin="round"/>
<line x1="718.764" y1="1026.878" x2="718.764" y2="1011.946" fill="none" stroke="#182a40" stroke-width="5.835" stroke-linejoin="round"/>
<line x1="718.764" y1="1011.946" x2="704.176" y2="1011.946" fill="none" stroke="#182a40" stroke-width="5.835" stroke-linejoin="round"/>
<line x1="704.176" y1="1011.946" x2="704.176" y2="1090.054" fill="none" stroke="#182a40" stroke-width="5.835" stroke-linejoin="round"/>
<line x1="704.176" y1="1090.054" x2="689.588" y2="1090.054" fill="none" stroke="#182a40" stroke-width="5.835" stroke-linejoin="round"/>
<line x1="689.588" y1="1090.054" x2="689.588" y2="1075.122" fill="none" stroke="#182a40" stroke-width="5.835" stroke-linejoin="round"/>
<line x1="558.297" y1="1051.000" x2="645.824" y2="1051.000" stroke="#182a40" stroke-width="5.835"/>
<text x="553.297" y="1043.000" text-anchor="end" font-family="Arial,sans-serif" font-size="12" fill="#52667c">1</text>
<line x1="791.703" y1="1051.000" x2="704.176" y2="1051.000" stroke="#182a40" stroke-width="5.835"/>
<text x="796.703" y="1043.000" text-anchor="start" font-family="Arial,sans-serif" font-size="12" fill="#52667c">2</text>
<text x="474" y="1172" font-family="Arial,sans-serif" font-size="12.000" fill="#64748b">1=A · 2=K</text>
<rect x="10" y="1210" width="430" height="280" rx="10" fill="white" stroke="#d7dce5"/>
<text x="24" y="1239" font-family="Arial,sans-serif" font-size="18.000" font-weight="bold" fill="#0f172a">TVS_Bidirectional</text>
<polygon points="164.040,1381.480 225.000,1351.000 164.040,1320.520" fill="white" stroke="#182a40" stroke-width="6.096" stroke-linejoin="round"/>
<polygon points="285.960,1381.480 225.000,1351.000 285.960,1320.520" fill="white" stroke="#182a40" stroke-width="6.096" stroke-linejoin="round"/>
<line x1="209.760" y1="1315.000" x2="225.000" y2="1315.000" fill="none" stroke="#182a40" stroke-width="6.096" stroke-linejoin="round"/>
<line x1="225.000" y1="1315.000" x2="225.000" y2="1387.000" fill="none" stroke="#182a40" stroke-width="6.096" stroke-linejoin="round"/>
<line x1="225.000" y1="1387.000" x2="240.240" y2="1387.000" fill="none" stroke="#182a40" stroke-width="6.096" stroke-linejoin="round"/>
<line x1="103.080" y1="1351.000" x2="164.040" y2="1351.000" stroke="#182a40" stroke-width="6.096"/>
<text x="98.080" y="1343.000" text-anchor="end" font-family="Arial,sans-serif" font-size="12" fill="#52667c">1</text>
<line x1="346.920" y1="1351.000" x2="285.960" y2="1351.000" stroke="#182a40" stroke-width="6.096"/>
<text x="351.920" y="1343.000" text-anchor="start" font-family="Arial,sans-serif" font-size="12" fill="#52667c">2</text>
<text x="24" y="1472" font-family="Arial,sans-serif" font-size="12.000" fill="#64748b">1=A · 2=B</text>
<rect x="460" y="1210" width="430" height="280" rx="10" fill="white" stroke="#d7dce5"/>
<text x="474" y="1239" font-family="Arial,sans-serif" font-size="18.000" font-weight="bold" fill="#0f172a">Potentiometer</text>
<line x1="632.374" y1="1384.815" x2="643.031" y2="1367.194" fill="none" stroke="#182a40" stroke-width="4.263" stroke-linejoin="round"/>
<line x1="643.031" y1="1367.194" x2="653.687" y2="1402.436" fill="none" stroke="#182a40" stroke-width="4.263" stroke-linejoin="round"/>
<line x1="653.687" y1="1402.436" x2="664.344" y2="1367.194" fill="none" stroke="#182a40" stroke-width="4.263" stroke-linejoin="round"/>
<line x1="664.344" y1="1367.194" x2="675.000" y2="1402.436" fill="none" stroke="#182a40" stroke-width="4.263" stroke-linejoin="round"/>
<line x1="675.000" y1="1402.436" x2="685.656" y2="1367.194" fill="none" stroke="#182a40" stroke-width="4.263" stroke-linejoin="round"/>
<line x1="685.656" y1="1367.194" x2="696.313" y2="1402.436" fill="none" stroke="#182a40" stroke-width="4.263" stroke-linejoin="round"/>
<line x1="696.313" y1="1402.436" x2="706.969" y2="1367.194" fill="none" stroke="#182a40" stroke-width="4.263" stroke-linejoin="round"/>
<line x1="706.969" y1="1367.194" x2="717.626" y2="1384.815" fill="none" stroke="#182a40" stroke-width="4.263" stroke-linejoin="round"/>
<line x1="685.656" y1="1342.190" x2="685.656" y2="1367.194" fill="none" stroke="#182a40" stroke-width="4.263" stroke-linejoin="round"/>
<polygon points="685.656,1367.194 690.691,1356.286 680.622,1356.286" fill="white" stroke="#182a40" stroke-width="4.263" stroke-linejoin="round"/>
<line x1="589.748" y1="1384.815" x2="632.374" y2="1384.815" stroke="#182a40" stroke-width="4.263"/>
<text x="584.748" y="1376.815" text-anchor="end" font-family="Arial,sans-serif" font-size="12" fill="#52667c">1</text>
<line x1="685.656" y1="1299.564" x2="685.656" y2="1342.190" stroke="#182a40" stroke-width="4.263"/>
<text x="692.656" y="1324.877" text-anchor="start" font-family="Arial,sans-serif" font-size="12" fill="#52667c">2</text>
<line x1="760.252" y1="1384.815" x2="717.626" y2="1384.815" stroke="#182a40" stroke-width="4.263"/>
<text x="765.252" y="1376.815" text-anchor="start" font-family="Arial,sans-serif" font-size="12" fill="#52667c">3</text>
<text x="474" y="1472" font-family="Arial,sans-serif" font-size="12.000" fill="#64748b">1=A · 2=W · 3=B</text>
</svg>
